<?xml version="1.0" encoding="UTF-8" standalone="no"?>
<!-- Created with Inkscape (http://www.inkscape.org/) -->

<svg
   xmlns:dc="http://purl.org/dc/elements/1.1/"
   xmlns:cc="http://creativecommons.org/ns#"
   xmlns:rdf="http://www.w3.org/1999/02/22-rdf-syntax-ns#"
   xmlns:svg="http://www.w3.org/2000/svg"
   xmlns="http://www.w3.org/2000/svg"
   xmlns:sodipodi="http://sodipodi.sourceforge.net/DTD/sodipodi-0.dtd"
   xmlns:inkscape="http://www.inkscape.org/namespaces/inkscape"
   width="100mm"
   height="100mm"
   viewBox="0 0 100 100"
   version="1.1"
   id="svg3727"
   inkscape:version="0.92.3 (2405546, 2018-03-11)"
   sodipodi:docname="logo.svg">
  <defs
     id="defs3721" />
  <sodipodi:namedview
     id="base"
     pagecolor="#ffffff"
     bordercolor="#666666"
     borderopacity="1.0"
     inkscape:pageopacity="0.0"
     inkscape:pageshadow="2"
     inkscape:zoom="3.959798"
     inkscape:cx="170.17506"
     inkscape:cy="214.99623"
     inkscape:document-units="mm"
     inkscape:current-layer="layer1"
     showgrid="false"
     inkscape:window-width="3840"
     inkscape:window-height="2092"
     inkscape:window-x="0"
     inkscape:window-y="32"
     inkscape:window-maximized="1" />
  <metadata
     id="metadata3724">
    <rdf:RDF>
      <cc:Work
         rdf:about="">
        <dc:format>image/svg+xml</dc:format>
        <dc:type
           rdf:resource="http://purl.org/dc/dcmitype/StillImage" />
        <dc:title></dc:title>
      </cc:Work>
    </rdf:RDF>
  </metadata>
  <g
     inkscape:label="Layer 1"
     inkscape:groupmode="layer"
     id="layer1"
     transform="translate(0,-197)">
    <text
       xml:space="preserve"
       style="font-style:normal;font-weight:normal;font-size:21.62162209px;line-height:1.25;font-family:sans-serif;letter-spacing:0px;word-spacing:0px;fill:#ffff00;fill-opacity:1;stroke:none;stroke-width:0.54054052;"
       x="-1.0728836e-06"
       y="261.86487"
       id="text3731"><tspan
         sodipodi:role="line"
         id="tspan3729"
         x="-1.0728836e-06"
         y="261.86487"
         style="font-style:normal;font-variant:normal;font-weight:normal;font-stretch:normal;font-family:Fipps;-inkscape-font-specification:Fipps;stroke-width:0.54054052;fill:#ffff00;">//0x11</tspan></text>
    <path
       style="fill:#00ffff;stroke-width:0.25253814"
       d="m 81.786716,153.20855 v -10.10152 h 5.050762 5.050763 v 10.10152 10.10153 h -5.050763 -5.050762 z"
       id="path4557"
       inkscape:connector-curvature="0"
       transform="matrix(0.26458333,0,0,0.26458333,0,197)" />
    <path
       style="fill:#00ffff;stroke-width:0.25253814"
       d="m 71.68519,173.66414 v -10.10152 h 4.924494 4.924493 v 10.10152 10.10153 H 76.609684 71.68519 Z"
       id="path4559"
       inkscape:connector-curvature="0"
       transform="matrix(0.26458333,0,0,0.26458333,0,197)" />
    <path
       style="fill:#00ffff;stroke-width:0.25253814"
       d="m 61.331126,194.11973 v -10.10152 h 5.050763 5.050763 v 10.10152 10.10153 h -5.050763 -5.050763 z"
       id="path4561"
       inkscape:connector-curvature="0"
       transform="matrix(0.26458333,0,0,0.26458333,0,197)" />
    <path
       style="fill:#00ffff;stroke-width:0.25253814"
       d="m 51.229601,214.57532 v -10.10153 h 4.924494 4.924493 v 10.10153 10.10153 h -4.924493 -4.924494 z"
       id="path4563"
       inkscape:connector-curvature="0"
       transform="matrix(0.26458333,0,0,0.26458333,0,197)" />
    <path
       style="fill:#00ffff;stroke-width:0.25253814"
       d="m 10.318423,214.57532 v -10.10153 h 5.050763 5.050762 v 10.10153 10.10153 h -5.050762 -5.050763 z"
       id="path4565"
       inkscape:connector-curvature="0"
       transform="matrix(0.26458333,0,0,0.26458333,0,197)" />
    <path
       style="fill:#00ffff;stroke-width:0.25253814"
       d="m 20.419948,194.11973 v -10.10152 h 5.050763 5.050763 v 10.10152 10.10153 h -5.050763 -5.050763 z"
       id="path4567"
       inkscape:connector-curvature="0"
       transform="matrix(0.26458333,0,0,0.26458333,0,197)" />
    <path
       style="fill:#00ffff;stroke-width:0.25253814"
       d="m 30.774012,173.66414 v -10.10152 h 5.050763 5.050762 v 10.10152 10.10153 h -5.050762 -5.050763 z"
       id="path4569"
       inkscape:connector-curvature="0"
       transform="matrix(0.26458333,0,0,0.26458333,0,197)" />
    <path
       style="fill:#00ffff;stroke-width:0.25253814"
       d="m 40.875537,153.20855 v -10.10152 h 5.050763 5.050763 v 10.10152 10.10153 H 45.9263 40.875537 Z"
       id="path4571"
       inkscape:connector-curvature="0"
       transform="matrix(0.26458333,0,0,0.26458333,0,197)" />
    <path
       style="fill:#00ffff;stroke-width:0.25253814"
       d="m 122.69789,188.9427 v -25.38008 h 5.05077 5.05076 v 25.38008 25.38008 h -5.05076 -5.05077 z"
       id="path4573"
       inkscape:connector-curvature="0"
       transform="matrix(0.26458333,0,0,0.26458333,0,197)" />
    <path
       style="fill:#00ffff;stroke-width:0.25253814"
       d="m 143.15348,188.9427 v -4.92449 h 4.9245 4.92449 v 4.92449 4.92449 h -4.92449 -4.9245 z"
       id="path4575"
       inkscape:connector-curvature="0"
       transform="matrix(0.26458333,0,0,0.26458333,0,197)" />
    <path
       style="fill:#00ffff;stroke-width:0.25253814"
       d="m 163.60907,188.9427 v -25.38008 h 4.9245 4.92449 v 25.38008 25.38008 h -4.92449 -4.9245 z"
       id="path4577"
       inkscape:connector-curvature="0"
       transform="matrix(0.26458333,0,0,0.26458333,0,197)" />
    <path
       style="fill:#00ffff;stroke-width:0.25253814"
       d="m 132.79942,158.25932 v -5.05077 h 15.27856 15.27855 v 5.05077 5.05076 h -15.27855 -15.27856 z"
       id="path4579"
       inkscape:connector-curvature="0"
       transform="matrix(0.26458333,0,0,0.26458333,0,197)" />
    <path
       style="fill:#00ffff;stroke-width:0.25253814"
       d="m 132.79942,219.62608 v -5.05076 h 15.27856 15.27855 v 5.05076 5.05077 h -15.27855 -15.27856 z"
       id="path4581"
       inkscape:connector-curvature="0"
       transform="matrix(0.26458333,0,0,0.26458333,0,197)" />
    <path
       style="fill:#00ffff;stroke-width:0.25253814"
       d="m 204.52025,219.62608 v -5.05076 h 4.92449 4.9245 v 5.05076 5.05077 h -4.9245 -4.92449 z"
       id="path4585"
       inkscape:connector-curvature="0"
       transform="matrix(0.26458333,0,0,0.26458333,0,197)" />
    <path
       style="fill:#00ffff;stroke-width:0.25253814"
       d="m 214.62178,209.39829 v -4.9245 h 5.05076 5.05076 v 4.9245 4.92449 h -5.05076 -5.05076 z"
       id="path4587"
       inkscape:connector-curvature="0"
       transform="matrix(0.26458333,0,0,0.26458333,0,197)" />
    <path
       style="fill:#00ffff;stroke-width:0.25253814"
       d="m 224.7233,199.17049 v -5.05076 h 5.05076 5.05077 v 5.05076 5.05077 h -5.05077 -5.05076 z"
       id="path4589"
       inkscape:connector-curvature="0"
       transform="matrix(0.26458333,0,0,0.26458333,0,197)" />
    <path
       style="fill:#00ffff;stroke-width:0.25253814"
       d="m 235.07736,188.9427 v -4.92449 h 4.9245 4.92449 v 4.92449 4.92449 h -4.92449 -4.9245 z"
       id="path4591"
       inkscape:connector-curvature="0"
       transform="matrix(0.26458333,0,0,0.26458333,0,197)" />
    <path
       style="fill:#00ffff;stroke-width:0.25253814"
       d="m 245.17889,178.7149 v -5.05076 h 5.05076 5.05077 v 5.05076 5.05077 h -5.05077 -5.05076 z"
       id="path4593"
       inkscape:connector-curvature="0"
       transform="matrix(0.26458333,0,0,0.26458333,0,197)" />
    <path
       style="fill:#00ffff;stroke-width:0.25253814"
       d="m 245.17889,219.62608 v -5.05076 h 5.05076 5.05077 v 5.05076 5.05077 h -5.05077 -5.05076 z"
       id="path4595"
       inkscape:connector-curvature="0"
       transform="matrix(0.26458333,0,0,0.26458333,0,197)" />
    <path
       style="fill:#00ffff;stroke-width:0.25253814"
       d="m 235.07736,209.39829 v -4.9245 h 4.9245 4.92449 v 4.9245 4.92449 h -4.92449 -4.9245 z"
       id="path4597"
       inkscape:connector-curvature="0"
       transform="matrix(0.26458333,0,0,0.26458333,0,197)" />
    <path
       style="fill:#00ffff;stroke-width:0.25253814"
       d="m 214.62178,188.9427 v -4.92449 h 5.05076 5.05076 v 4.92449 4.92449 h -5.05076 -5.05076 z"
       id="path4599"
       inkscape:connector-curvature="0"
       transform="matrix(0.26458333,0,0,0.26458333,0,197)" />
    <path
       style="fill:#00ffff;stroke-width:0.25253814"
       d="m 204.52025,178.7149 v -5.05076 h 4.92449 4.9245 v 5.05076 5.05077 h -4.9245 -4.92449 z"
       id="path4601"
       inkscape:connector-curvature="0"
       transform="matrix(0.26458333,0,0,0.26458333,0,197)" />
    <path
       style="fill:#00ffff;stroke-width:0.25253814"
       d="m 296.44413,199.17049 v -25.50635 h -5.17703 -5.17703 v -5.05076 -5.05076 h 5.17703 5.17703 v -5.17704 -5.17703 h 4.9245 4.92449 v 35.73415 35.73415 h -4.92449 -4.9245 z"
       id="path4603"
       inkscape:connector-curvature="0"
       transform="matrix(0.26458333,0,0,0.26458333,0,197)" />
    <path
       style="fill:#00ffff;stroke-width:0.25253814"
       d="m 347.45684,199.17049 v -25.50635 h -5.17704 -5.17703 v -5.05076 -5.05076 h 5.17703 5.17704 v -5.17704 -5.17703 h 4.92449 4.92449 v 35.73415 35.73415 h -4.92449 -4.92449 z"
       id="path4605"
       inkscape:connector-curvature="0"
       transform="matrix(0.26458333,0,0,0.26458333,0,197)" />
  </g>
</svg>
